# xmcd CD database file
#
# Track frame offsets:
#	150
#	17715
#	41595
#	62595
#	78495
#	98780
#	121505
#	143990
#	158582
#	181930
#
# Disc length: 2650 seconds
#
# Revision: 0
# Processed by: cddbd v1.4PL0 Copyright (c) Steve Scherf et al.
# Submitted via: CDex 1.50Beta3
#
DISCID=730a580a
DTITLE=Eddie Boyd - Praise to Helsinki
DYEAR=1900
DGENRE=Blues
TTITLE0=Got To Know
TTITLE1=Let It Be Me
TTITLE2=Denmark
TTITLE3=I Cried
TTITLE4=Nothing
TTITLE5=Praise To Helsinki
TTITLE6=When The Cuckoo...
TTITLE7=The Guff
TTITLE8=Ding Dong
TTITLE9=Eddie's Instrumental
EXTD=
EXTT0=
EXTT1=
EXTT2=
EXTT3=
EXTT4=
EXTT5=
EXTT6=
EXTT7=
EXTT8=
EXTT9=
PLAYORDER=
